<?xml version="1.0" encoding="UTF-8"?>
<svg xmlns="http://www.w3.org/2000/svg" width="1440" height="915" viewBox="0 0 1440 915" fill="none">
  <g clip-path="url(#clip0_621_1216)">
    <path opacity="0.75" d="M1031 215H968V251H1031V215Z" fill="black"></path>
    <path d="M977.65 237H976.244L978.805 229.727H980.431L982.995 237H981.589L979.646 231.219H979.589L977.65 237ZM977.697 234.148H981.532V235.207H977.697V234.148Z" fill="white"></path>
    <path d="M989.93 229.727V237H988.758L985.331 232.046H985.271V237H983.953V229.727H985.132L988.555 234.685H988.619V229.727H989.93Z" fill="white"></path>
    <path d="M992.295 237H990.889L993.449 229.727H995.075L997.639 237H996.233L994.291 231.219H994.234L992.295 237ZM992.341 234.148H996.176V235.207H992.341V234.148Z" fill="white"></path>
    <path d="M998.598 237V229.727H999.915V235.896H1003.12V237H998.598Z" fill="white"></path>
    <path d="M1003.76 229.727H1005.25L1007.03 232.945H1007.1L1008.88 229.727H1010.37L1007.72 234.287V237H1006.41V234.287L1003.76 229.727Z" fill="white"></path>
    <path d="M1011.17 237V236.18L1014.9 230.832H1011.15V229.727H1016.53V230.548L1012.81 235.896H1016.55V237H1011.17Z" fill="white"></path>
    <path d="M1017.83 237V229.727H1022.56V230.832H1019.15V232.806H1022.32V233.911H1019.15V235.896H1022.59V237H1017.83Z" fill="white"></path>
    <path d="M968 211H967V338H968V211Z" fill="url(#paint0_linear_621_1216)"></path>
    <path opacity="0.1" d="M967.5 216C974.404 216 980 210.404 980 203.5C980 196.596 974.404 191 967.5 191C960.596 191 955 196.596 955 203.5C955 210.404 960.596 216 967.5 216Z" fill="url(#paint1_linear_621_1216)"></path>
    <path opacity="0.1" d="M967 224C978.046 224 987 215.046 987 204C987 192.954 978.046 184 967 184C955.954 184 947 192.954 947 204C947 215.046 955.954 224 967 224Z" fill="url(#paint2_linear_621_1216)"></path>
    <path d="M967.5 211C971.642 211 975 207.642 975 203.5C975 199.358 971.642 196 967.5 196C963.358 196 960 199.358 960 203.5C960 207.642 963.358 211 967.5 211Z" fill="#F6B804"></path>
    <path opacity="0.75" d="M904 295H846V331H904V295Z" fill="black"></path>
    <path d="M855.65 317H854.244L856.805 309.727H858.431L860.995 317H859.589L857.646 311.219H857.589L855.65 317ZM855.697 314.148H859.532V315.207H855.697V314.148Z" fill="white"></path>
    <path d="M861.635 310.832V309.727H867.437V310.832H865.189V317H863.883V310.832H861.635Z" fill="white"></path>
    <path d="M868.232 310.832V309.727H874.035V310.832H871.787V317H870.48V310.832H868.232Z" fill="white"></path>
    <path d="M876.084 317H874.678L877.238 309.727H878.865L881.428 317H880.022L878.08 311.219H878.023L876.084 317ZM876.13 314.148H879.965V315.207H876.13V314.148Z" fill="white"></path>
    <path d="M888.613 312.181H887.285C887.247 311.963 887.177 311.77 887.075 311.601C886.973 311.431 886.847 311.287 886.695 311.169C886.544 311.051 886.372 310.961 886.179 310.901C885.986 310.841 885.778 310.81 885.555 310.81C885.16 310.81 884.81 310.909 884.504 311.107C884.199 311.305 883.96 311.593 883.787 311.973C883.614 312.353 883.528 312.817 883.528 313.364C883.528 313.92 883.615 314.388 883.789 314.768C883.963 315.148 884.202 315.435 884.506 315.628C884.81 315.82 885.159 315.917 885.552 315.917C885.77 315.917 885.974 315.888 886.164 315.83C886.355 315.772 886.527 315.686 886.679 315.572C886.832 315.459 886.961 315.319 887.066 315.153C887.172 314.988 887.245 314.798 887.285 314.585L888.613 314.592C888.563 314.938 888.456 315.262 888.292 315.565C888.127 315.868 887.912 316.135 887.647 316.366C887.382 316.597 887.072 316.777 886.717 316.906C886.362 317.035 885.967 317.099 885.534 317.099C884.895 317.099 884.324 316.951 883.822 316.656C883.321 316.36 882.925 315.932 882.636 315.374C882.348 314.815 882.203 314.145 882.203 313.364C882.203 312.58 882.349 311.909 882.64 311.352C882.931 310.794 883.328 310.368 883.83 310.072C884.331 309.776 884.9 309.628 885.534 309.628C885.939 309.628 886.315 309.685 886.663 309.798C887.011 309.912 887.321 310.078 887.594 310.297C887.866 310.516 888.09 310.784 888.267 311.1C888.443 311.416 888.558 311.776 888.613 312.181Z" fill="white"></path>
    <path d="M889.822 317V309.727H891.14V313.069H891.229L894.066 309.727H895.675L892.862 312.991L895.699 317H894.116L891.946 313.882L891.14 314.834V317H889.822Z" fill="white"></path>
    <path d="M846 291H845V438H846V291Z" fill="url(#paint3_linear_621_1216)"></path>
    <path opacity="0.1" d="M845.5 296C852.404 296 858 290.404 858 283.5C858 276.596 852.404 271 845.5 271C838.596 271 833 276.596 833 283.5C833 290.404 838.596 296 845.5 296Z" fill="url(#paint4_linear_621_1216)"></path>
    <path opacity="0.1" d="M845 304C856.046 304 865 295.046 865 284C865 272.954 856.046 264 845 264C833.954 264 825 272.954 825 284C825 295.046 833.954 304 845 304Z" fill="url(#paint5_linear_621_1216)"></path>
    <path d="M845.5 291C849.642 291 853 287.642 853 283.5C853 279.358 849.642 276 845.5 276C841.358 276 838 279.358 838 283.5C838 287.642 841.358 291 845.5 291Z" fill="#60A6B4"></path>
    <path opacity="0.75" d="M1402 161H1346V197H1402V161Z" fill="black"></path>
    <path d="M1355.72 183V175.727H1358.44C1359 175.727 1359.47 175.824 1359.85 176.018C1360.23 176.213 1360.52 176.484 1360.72 176.833C1360.91 177.183 1361.01 177.589 1361.01 178.053C1361.01 178.52 1360.91 178.924 1360.71 179.266C1360.51 179.608 1360.22 179.872 1359.84 180.058C1359.46 180.244 1358.99 180.337 1358.43 180.337H1356.48V179.243H1358.25C1358.58 179.243 1358.84 179.197 1359.05 179.106C1359.26 179.015 1359.41 178.881 1359.51 178.705C1359.62 178.529 1359.67 178.311 1359.67 178.053C1359.67 177.795 1359.61 177.574 1359.51 177.391C1359.41 177.207 1359.26 177.068 1359.05 176.972C1358.84 176.876 1358.57 176.828 1358.24 176.828H1357.03V183H1355.72ZM1359.47 179.705L1361.27 183H1359.8L1358.04 179.705H1359.47Z" fill="white"></path>
    <path d="M1362.22 183V175.727H1366.95V176.832H1363.54V178.806H1366.71V179.911H1363.54V181.896H1366.98V183H1362.22Z" fill="white"></path>
    <path d="M1368.3 183V175.727H1371.03C1371.58 175.727 1372.05 175.831 1372.43 176.04C1372.81 176.248 1373.1 176.534 1373.3 176.897C1373.49 177.261 1373.59 177.673 1373.59 178.135C1373.59 178.601 1373.49 179.016 1373.3 179.378C1373.1 179.74 1372.81 180.025 1372.43 180.232C1372.04 180.439 1371.57 180.543 1371.01 180.543H1369.2V179.46H1370.83C1371.16 179.46 1371.43 179.403 1371.63 179.289C1371.84 179.175 1372 179.019 1372.1 178.82C1372.2 178.621 1372.25 178.393 1372.25 178.135C1372.25 177.877 1372.2 177.65 1372.1 177.453C1372 177.257 1371.84 177.103 1371.63 176.993C1371.42 176.883 1371.15 176.828 1370.82 176.828H1369.62V183H1368.3Z" fill="white"></path>
    <path d="M1374.73 183V175.727H1379.46V176.832H1376.05V178.806H1379.22V179.911H1376.05V181.896H1379.49V183H1374.73Z" fill="white"></path>
    <path d="M1381.74 183H1380.34L1382.9 175.727H1384.52L1387.09 183H1385.68L1383.74 177.219H1383.68L1381.74 183ZM1381.79 180.148H1385.62V181.207H1381.79V180.148Z" fill="white"></path>
    <path d="M1387.73 176.832V175.727H1393.53V176.832H1391.28V183H1389.97V176.832H1387.73Z" fill="white"></path>
    <path d="M1347 157H1346V251H1347V157Z" fill="url(#paint6_linear_621_1216)"></path>
    <path opacity="0.1" d="M1346.5 162C1353.4 162 1359 156.404 1359 149.5C1359 142.596 1353.4 137 1346.5 137C1339.6 137 1334 142.596 1334 149.5C1334 156.404 1339.6 162 1346.5 162Z" fill="url(#paint7_linear_621_1216)"></path>
    <path opacity="0.1" d="M1347 170C1358.05 170 1367 161.046 1367 150C1367 138.954 1358.05 130 1347 130C1335.95 130 1327 138.954 1327 150C1327 161.046 1335.95 170 1347 170Z" fill="url(#paint8_linear_621_1216)"></path>
    <path d="M1346.5 157C1350.64 157 1354 153.642 1354 149.5C1354 145.358 1350.64 142 1346.5 142C1342.36 142 1339 145.358 1339 149.5C1339 153.642 1342.36 157 1346.5 157Z" fill="#3E73F9"></path>
    <path opacity="0.75" d="M1248 251H1198V287H1248V251Z" fill="black"></path>
    <path d="M1206.72 273V265.727H1209.44C1210 265.727 1210.47 265.824 1210.85 266.018C1211.23 266.213 1211.52 266.484 1211.72 266.833C1211.91 267.183 1212.01 267.589 1212.01 268.053C1212.01 268.52 1211.91 268.924 1211.71 269.266C1211.51 269.608 1211.22 269.872 1210.84 270.058C1210.46 270.244 1209.99 270.337 1209.43 270.337H1207.48V269.243H1209.25C1209.58 269.243 1209.84 269.197 1210.05 269.106C1210.26 269.015 1210.41 268.881 1210.51 268.705C1210.62 268.529 1210.67 268.311 1210.67 268.053C1210.67 267.795 1210.61 267.574 1210.51 267.391C1210.41 267.208 1210.26 267.068 1210.05 266.972C1209.84 266.876 1209.57 266.828 1209.24 266.828H1208.03V273H1206.72ZM1210.47 269.705L1212.27 273H1210.8L1209.04 269.705H1210.47Z" fill="white"></path>
    <path d="M1213.22 273V265.727H1217.95V266.832H1214.54V268.806H1217.71V269.911H1214.54V271.896H1217.98V273H1213.22Z" fill="white"></path>
    <path d="M1219.3 273V265.727H1223.96V266.832H1220.62V268.806H1223.64V269.911H1220.62V273H1219.3Z" fill="white"></path>
    <path d="M1226.47 265.727V273H1225.15V265.727H1226.47Z" fill="white"></path>
    <path d="M1233.88 265.727V273H1232.71L1229.28 268.046H1229.22V273H1227.9V265.727H1229.08L1232.5 270.685H1232.57V265.727H1233.88Z" fill="white"></path>
    <path d="M1235.31 273V265.727H1240.04V266.832H1236.63V268.806H1239.8V269.911H1236.63V271.896H1240.07V273H1235.31Z" fill="white"></path>
    <path d="M1198 247H1197V318H1198V247Z" fill="url(#paint9_linear_621_1216)"></path>
    <path opacity="0.1" d="M1197.5 252C1204.4 252 1210 246.404 1210 239.5C1210 232.596 1204.4 227 1197.5 227C1190.6 227 1185 232.596 1185 239.5C1185 246.404 1190.6 252 1197.5 252Z" fill="url(#paint10_linear_621_1216)"></path>
    <path opacity="0.1" d="M1197 259C1208.05 259 1217 250.046 1217 239C1217 227.954 1208.05 219 1197 219C1185.95 219 1177 227.954 1177 239C1177 250.046 1185.95 259 1197 259Z" fill="url(#paint11_linear_621_1216)"></path>
    <path d="M1197.5 247C1201.64 247 1205 243.642 1205 239.5C1205 235.358 1201.64 232 1197.5 232C1193.36 232 1190 235.358 1190 239.5C1190 243.642 1193.36 247 1197.5 247Z" fill="#EE0F51"></path>
    <mask id="mask0_621_1216" style="mask-type:alpha" maskUnits="userSpaceOnUse" x="111" y="184" width="1302" height="735">
      <path d="M154 781.5L111 843.5L447 864L774 918.5L1345 674.5L1413 184L1172.5 285.5L958 274L834 373.5L811.5 693H571L332.5 507H218L154 781.5Z" fill="url(#paint12_linear_621_1216)"></path>
    </mask>
    <g mask="url(#mask0_621_1216)">
      <path d="M1610.48 283.91L1607.69 286.411C1546.95 218.412 1494.46 187.677 1447.15 192.454C1422.06 194.991 1399.11 207.613 1377.45 227.109L1378.96 226.361C1393.46 219.339 1408.45 214.904 1424.05 213.544C1477.92 208.828 1534.68 241.037 1597.5 311.954L1594.7 314.44C1532.72 244.468 1477.02 212.681 1424.37 217.27C1404.33 219.018 1385.27 226.025 1366.94 237.192C1364.42 239.763 1361.91 242.423 1359.42 245.166C1370.93 241.193 1382.72 238.538 1394.78 237.382C1456.62 231.468 1518.71 265.027 1584.52 339.992L1581.71 342.473C1516.75 268.467 1455.72 235.308 1395.14 241.106C1381.08 242.453 1367.34 245.992 1353.92 251.375C1351.02 254.736 1348.14 258.207 1345.28 261.779C1350 260.891 1354.77 260.187 1359.59 259.675C1431.13 252.075 1502.46 288.536 1571.54 368.044L1568.72 370.497C1500.49 291.971 1430.25 255.92 1359.98 263.397C1353.8 264.053 1347.7 265.03 1341.7 266.306C1338.57 270.322 1335.46 274.452 1332.36 278.689C1411.24 274.959 1489.16 315.288 1558.57 396.088L1555.73 398.535C1486.23 317.617 1408.26 277.742 1329.53 282.595C1326.35 287.032 1323.19 291.575 1320.04 296.216C1400.44 302.476 1480.49 347.35 1545.59 424.135L1542.73 426.559C1477.72 349.879 1397.74 305.35 1317.62 299.797C1314.38 304.621 1311.16 309.542 1307.94 314.548C1389.52 330.06 1471.62 379.165 1532.61 452.184L1529.74 454.583C1468.93 381.772 1386.99 332.971 1305.77 317.947C1302.43 323.191 1299.1 328.521 1295.78 333.924C1378.69 357.872 1462.66 410.828 1519.64 480.232L1516.75 482.608C1459.99 413.463 1376.26 360.778 1293.77 337.196C1290.58 342.414 1287.39 347.693 1284.21 353.024C1371.93 385.887 1456.45 445.868 1506.66 508.285L1503.75 510.637C1453.76 448.491 1369.55 388.773 1282.29 356.228C1278.9 361.927 1275.5 367.68 1272.1 373.471C1364.15 415.294 1450.48 481.317 1493.69 536.338L1490.76 538.656C1447.75 483.891 1361.79 418.135 1270.26 376.608C1266.93 382.296 1263.59 388.015 1260.24 393.752C1354.43 442.891 1441.38 512.829 1480.72 564.396L1477.75 566.671C1438.6 515.353 1352.07 445.702 1258.43 396.852L1259.58 394.881C1255.8 401.36 1251.99 407.89 1248.15 414.451C1345.29 471.147 1433.22 545.553 1467.76 592.46L1464.75 594.683C1429.68 547.06 1344.67 477.277 1258 424.988C1254.23 422.712 1250.26 420.353 1246.1 417.931C1242.6 423.901 1239.06 429.894 1235.48 435.894C1236.32 436.426 1237.14 436.953 1237.95 437.477C1342.33 504.562 1427.58 581.867 1454.8 620.535L1451.74 622.69C1422.81 581.59 1333.47 503.372 1233.35 439.47C1229.8 445.408 1226.22 451.348 1222.59 457.276C1327.67 529.606 1417.77 612.357 1441.84 648.612L1438.73 650.688C1415.86 616.253 1324.88 532.679 1220.58 460.555C1166.28 548.957 1102.77 634.368 1014.83 667.421L1007.6 670.116C1005.95 670.99 1004.29 671.844 1002.61 672.677C996.911 675.515 991.276 678.25 985.707 680.885C978.76 685.255 971.93 689.393 965.205 693.302C958.991 698.045 952.871 702.513 946.834 706.711C941.114 711.939 935.219 717.055 929.134 721.971C924.164 727.23 919.028 732.335 913.704 737.207C909.195 742.665 904.508 747.923 899.617 752.902C894.994 759.215 890.125 765.22 884.971 770.804C881.42 776.002 877.801 780.796 874.102 785.196C870.497 791.109 866.768 796.49 862.902 801.358C859.577 807.26 856.091 812.611 852.435 817.427C848.984 823.994 845.29 829.848 841.343 835.013C838.699 840.173 835.881 844.865 832.886 849.094C825.34 865.231 815.535 877.583 802.911 884.834C793.09 890.479 781.819 892.851 769.164 891.966C748.697 890.535 724.595 880.588 697.091 862.173C594.158 793.259 530.13 743.471 485.903 704.444C378.325 683.301 293.752 673.829 171.079 790.977C169.56 800.656 168.014 809.984 166.4 818.891L164.067 818.47C163.958 818.945 163.849 819.419 163.74 819.892L161.505 819.373C161.363 819.879 161.222 820.384 161.08 820.887L158.941 820.286C158.765 820.82 158.588 821.352 158.411 821.883L156.379 821.207C156.166 821.764 155.952 822.32 155.738 822.875L153.822 822.136C153.571 822.713 153.319 823.288 153.066 823.863L151.262 823.07C150.971 823.663 150.678 824.257 150.385 824.85L148.7 824.018C148.369 824.623 148.037 825.228 147.705 825.833L146.141 824.969C145.769 825.584 145.397 826.2 145.024 826.816L143.571 825.93L142.339 827.79L141.004 826.894C140.555 827.514 140.105 828.136 139.655 828.759L138.431 827.866C137.945 828.485 137.458 829.106 136.971 829.728L135.854 828.844C135.333 829.458 134.812 830.075 134.289 830.694L133.272 829.817C132.716 830.427 132.159 831.039 131.601 831.654L128.839 829.132C136.681 820.487 144.367 812.333 151.908 804.645C152.695 803.763 153.483 802.882 154.269 802.006C155.125 800.952 155.979 799.903 156.83 798.86C157.483 797.976 158.136 797.093 158.786 796.213C159.454 795.208 160.123 794.203 160.789 793.202C161.398 792.177 162.007 791.154 162.614 790.133C163.174 789.07 163.734 788.007 164.293 786.946C164.827 785.796 165.359 784.646 165.889 783.497C166.336 782.387 166.783 781.276 167.228 780.166C167.642 778.962 168.057 777.757 168.47 776.553C168.832 775.313 169.192 774.072 169.551 772.83C169.857 771.555 170.163 770.276 170.469 768.992C170.713 767.718 170.958 766.44 171.202 765.158C172.096 759.091 172.993 752.922 173.902 746.669C188.196 648.328 204.404 536.868 252.324 516.912C269.249 509.865 289.212 514.766 311.681 531.468C343.943 555.455 364.923 575.417 384.272 595.845L385.859 597.526C386.387 598.086 386.914 598.647 387.44 599.208L389.015 600.894L390.587 602.584C391.359 603.415 392.129 604.248 392.899 605.082C397.757 609.729 402.552 614.411 407.41 619.185C407.592 619.344 407.774 619.503 407.957 619.663L409.674 621.166C413.685 624.678 417.714 628.235 421.822 631.861L423.088 632.978C425.251 634.683 427.428 636.403 429.627 638.139C433.025 640.822 436.478 643.548 440.013 646.327C445.941 650.505 451.968 654.746 458.204 659.09L458.203 659.09L460.417 660.472C465.98 663.942 471.675 667.474 477.571 671.088C484.139 674.695 490.907 678.378 497.96 682.158C504.951 685.501 512.178 688.914 519.712 692.408C527.046 695.423 534.632 698.488 542.529 701.611C550.379 704.329 558.495 707.075 566.931 709.845C575.228 712.186 583.794 714.52 592.677 716.838C601.51 718.751 610.614 720.611 620.028 722.403C629.035 723.724 638.286 724.942 647.812 726.034C705.821 730.145 772.418 727.899 852.084 711.502C853.333 656.44 849.769 596.575 846.674 544.586C843.358 488.85 840.494 440.716 844.837 417.469C853.4 371.64 877.377 344.385 916.098 336.479C931.458 333.345 948.478 333.395 966.503 335.885C977.896 334.871 989.871 335.162 1002.23 336.527L1002.22 336.516C1013.54 335.293 1025.45 335.225 1037.83 336.184L1037.83 336.174C1049 334.686 1060.69 334.243 1072.77 334.737L1072.77 334.747C1072.8 334.743 1072.83 334.738 1072.85 334.733C1084.1 332.829 1095.78 331.921 1107.8 331.912C1111.26 331.178 1114.79 330.526 1118.37 329.956C1126.32 328.692 1134.44 327.865 1142.71 327.451C1150.6 325.355 1158.73 323.681 1167.1 322.438C1170.32 321.959 1173.57 321.549 1176.85 321.206C1188.52 317.372 1199.89 314.687 1210.64 312.854C1221.2 308.562 1232.06 305.044 1243.19 302.321C1253.76 297.072 1264.54 292.665 1275.49 289.122C1285.49 283.101 1295.8 277.823 1306.42 273.427C1316.26 266.328 1326.31 260.102 1336.59 254.89C1345.35 247.362 1354.25 240.694 1363.34 235.019C1388.81 208.839 1415.92 191.849 1446.78 188.729C1495.32 183.803 1548.88 214.952 1610.48 283.91ZM493.239 705.896L494.641 707.118C538.504 745.214 601.157 793.443 699.168 859.062C742.405 888.006 776.68 895.585 801.048 881.589C808.737 877.171 815.345 870.743 821.005 862.629C816.483 866.698 811.653 869.976 806.507 872.472C796.807 877.17 785.901 879.094 773.848 878.251C753.965 876.86 730.942 867.952 705.012 851.56C605.874 788.912 542.642 743.076 498.02 706.849C496.419 706.529 494.827 706.212 493.239 705.896ZM505.949 708.435L508.172 710.213C552.209 745.355 613.651 789.401 707.003 848.393C747.508 873.985 780.43 880.959 804.874 869.097C813.842 864.751 821.822 857.861 828.84 848.365C823.891 852.599 818.617 856.013 813.001 858.637C802.64 863.484 791.068 865.452 778.346 864.562C759.105 863.216 737.238 855.338 712.932 840.954C617.7 784.589 555.341 742.729 510.384 709.32C508.903 709.026 507.423 708.73 505.949 708.435ZM519.016 711.039L521.619 712.945C565.743 745.166 625.937 785.112 714.837 837.728C754.085 860.957 786.578 866.851 811.419 855.248C819.428 851.504 826.724 846.047 833.356 838.778C833.74 837.799 834.116 836.803 834.484 835.796C829.662 839.488 824.6 842.513 819.281 844.889C792.607 856.816 760.406 852.045 720.862 830.342C629.622 780.26 568.218 742.395 522.997 711.824C521.667 711.563 520.34 711.301 519.016 711.039ZM532.462 713.669L534.915 715.304C579.053 744.643 637.983 780.577 722.658 827.058C761.116 848.161 792.219 852.877 817.759 841.472C824.522 838.45 830.859 834.316 836.803 829.016C837.292 827.499 837.766 825.956 838.225 824.391C834.102 827.068 829.847 829.335 825.449 831.201C798.511 842.639 766.898 838.891 728.801 819.731C640.78 775.472 580.845 741.905 535.64 714.278C534.579 714.076 533.519 713.873 532.462 713.669ZM546.093 716.244L546.223 716.32C590.307 742.894 648.059 774.945 730.475 816.388C767.534 835.019 798.12 838.741 823.993 827.757C829.478 825.429 834.739 822.441 839.791 818.765C840.298 816.87 840.783 814.94 841.251 812.983C838.051 814.725 834.794 816.259 831.472 817.589C804.298 828.473 773.307 825.695 736.74 809.129C652.872 771.113 594.069 741.512 548.784 716.738C547.884 716.574 546.987 716.41 546.093 716.244ZM843.93 820.337L843.572 820.612C843.346 820.785 843.119 820.956 842.891 821.126C842.646 822.04 842.394 822.944 842.138 823.842C842.349 823.611 842.563 823.383 842.777 823.153C843.165 822.226 843.55 821.288 843.93 820.337ZM560.473 718.823L561.848 719.562C605.48 743.034 661.306 770.825 738.283 805.714C773.879 821.851 803.901 824.592 830.086 814.11C834.285 812.429 838.381 810.404 842.383 808.024C842.848 805.916 843.291 803.774 843.716 801.603C828.766 808.307 811.944 811.616 792.81 810.281C778.187 809.263 762.219 805.528 744.697 798.519C665.012 766.663 607.463 741.031 562.218 719.124C561.636 719.024 561.054 718.924 560.473 718.823ZM848.091 808.868L848.08 808.873C847.234 809.43 846.384 809.971 845.53 810.496C845.18 812.064 844.815 813.613 844.44 815.144C845.154 814.545 845.867 813.933 846.575 813.306C847.089 811.854 847.595 810.374 848.091 808.868ZM575.439 721.318L577.426 722.261C620.448 742.68 674.26 766.327 746.083 795.039C786.514 811.205 818.518 809.379 844.611 796.828C845.044 794.432 845.455 792.002 845.845 789.541C830.443 795.32 813.44 798.083 794.502 796.76C781.497 795.85 767.597 793.02 752.659 787.915C677.15 762.1 620.979 740.429 575.902 721.39C575.747 721.367 575.593 721.343 575.439 721.318ZM854.627 804.182L854.617 804.188C854.111 804.581 853.603 804.968 853.094 805.348C852.842 806.17 852.587 806.985 852.329 807.792C852.772 807.333 853.214 806.868 853.654 806.396C853.981 805.666 854.305 804.928 854.627 804.182ZM198.53 761.4L202.397 758.219C306.45 673.511 384.724 681.035 480.408 699.558C479.216 698.492 478.041 697.435 476.88 696.385C445.863 689.079 416.069 682.6 386.253 679.464C322.926 672.785 266.482 696.442 198.53 761.4ZM851.458 797.736L849.937 798.555C849.218 798.936 848.495 799.309 847.768 799.673C847.41 801.579 847.038 803.465 846.652 805.331C847.748 804.593 848.84 803.829 849.925 803.037C850.448 801.303 850.959 799.536 851.458 797.736ZM197.822 756.932L199.152 755.674C266.616 692.155 323.221 669.06 386.64 675.742C414.569 678.68 442.398 684.508 471.202 691.209C470.115 690.212 469.045 689.224 467.988 688.243C438.276 679.979 409.559 672.456 379.816 667.397C314.135 656.23 260.293 688.883 197.822 756.932ZM858.985 793.199L858.953 793.218C857.983 793.854 857.005 794.475 856.018 795.081C855.655 796.459 855.285 797.819 854.909 799.161C855.816 798.411 856.719 797.639 857.617 796.847C858.078 795.648 858.534 794.432 858.985 793.199ZM596.282 725.811L599.216 727.011C640.303 743.785 690.203 762.6 753.873 784.368C790.437 796.873 820.773 795.331 846.518 785.117C846.893 782.563 847.246 779.979 847.579 777.366C822.345 785.319 793.686 786.529 760.643 777.307C692.659 758.338 639.835 741.354 596.282 725.811ZM198.442 750.769L199.073 750.091C260.782 683.997 314.679 652.507 380.44 663.706C408.042 668.396 434.716 675.19 462.093 682.726C461.135 681.823 460.19 680.926 459.255 680.036C430.782 670.799 403.058 662.213 373.381 655.321C307.5 640.009 257.309 678.179 198.442 750.769ZM854.471 785.912L853.876 786.189C852.515 786.814 851.141 787.415 849.754 787.992C849.404 790.28 849.035 792.543 848.649 794.78C850.079 794.01 851.493 793.21 852.889 792.379C853.43 790.264 853.958 788.109 854.471 785.912ZM197.833 745.614L198.64 744.628C257.112 673.373 307.637 636.224 374.228 651.673C401.498 658.006 427.084 665.752 453.101 674.115C452.292 673.331 451.494 672.552 450.704 671.779C423.4 661.554 396.59 651.898 366.956 643.242C299.86 623.634 251.798 669.875 197.833 745.614ZM865.227 788.808L864.699 789.203C864.539 789.322 864.379 789.441 864.218 789.559C864.039 790.077 863.86 790.594 863.681 791.107C863.967 790.818 864.252 790.526 864.537 790.232C864.768 789.761 864.998 789.286 865.227 788.808ZM862.905 781.596L861.91 782.147C860.87 782.717 859.822 783.273 858.766 783.814C858.33 785.749 857.884 787.654 857.427 789.528C858.692 788.69 859.942 787.827 861.177 786.939C861.762 785.191 862.338 783.41 862.905 781.596ZM197.035 740.292L197.845 739.166C251.476 664.687 299.932 619.752 368.002 639.648C394.933 647.511 419.506 656.188 444.219 665.363C443.591 664.735 442.968 664.111 442.35 663.489C416.156 652.26 390.172 641.515 360.535 631.159C292.102 607.243 246.475 660.928 197.035 740.292ZM619.908 730.109L621.788 730.752C660.369 743.932 705.902 758.148 761.645 773.701C794.548 782.887 823.039 781.439 848.092 773.19C848.407 770.517 848.702 767.815 848.978 765.086C824.814 771.541 798.201 772.922 768.637 766.701C709.21 754.196 660.908 741.961 619.908 730.109ZM857.03 774.02L855.029 774.789C853.828 775.242 852.619 775.679 851.402 776.101C851.094 778.59 850.767 781.052 850.421 783.488C852.155 782.727 853.869 781.927 855.562 781.088C856.066 778.776 856.555 776.42 857.03 774.02ZM870.433 777.064L869.643 777.572C868.981 777.993 868.316 778.409 867.648 778.818C867.227 780.226 866.801 781.617 866.37 782.989C867.177 782.345 867.975 781.689 868.767 781.023C869.327 779.723 869.882 778.404 870.433 777.064ZM196.233 734.519L196.791 733.63C246 655.41 292.115 603.285 361.771 627.627C388.354 636.916 411.99 646.509 435.458 656.478L434.225 655.208C409.076 642.957 383.819 631.095 354.129 619.072C284.149 590.746 242.167 649.684 196.233 734.519ZM866.276 770.006L864.971 770.618C863.709 771.202 862.437 771.769 861.156 772.319C860.73 774.537 860.292 776.719 859.841 778.866C861.427 778.005 862.992 777.111 864.54 776.185C865.129 774.164 865.708 772.104 866.276 770.006ZM195.642 727.839L195.65 727.823C240.284 646.408 284.457 586.832 355.532 615.602C381.76 626.222 404.52 636.706 426.785 647.438L426.334 646.963C402.164 633.671 377.547 620.659 347.727 606.99C276.892 574.524 236.708 640.579 195.642 727.839ZM876.982 772.578L875.932 773.33C875.676 773.99 875.42 774.645 875.162 775.295C875.414 775.056 875.664 774.817 875.914 774.576C876.269 773.915 876.626 773.25 876.982 772.578ZM874.83 765.629L874.551 765.782C873.282 766.476 872.004 767.155 870.716 767.816C870.238 769.649 869.751 771.454 869.256 773.231C870.494 772.42 871.721 771.589 872.936 770.739C873.574 769.066 874.205 767.362 874.83 765.629ZM859.223 761.999L857.552 762.55C855.963 763.065 854.363 763.558 852.751 764.029C852.489 766.667 852.209 769.283 851.91 771.874C853.924 771.143 855.916 770.371 857.886 769.557C858.347 767.084 858.793 764.564 859.223 761.999ZM643.926 732.974L645.203 733.323C680.681 743.01 721.407 752.933 769.404 763.033C798.846 769.227 825.333 767.696 849.369 761.049C849.624 758.332 849.859 755.589 850.077 752.824C825.767 758.517 801.655 759.472 776.645 756.081C725.296 749.133 681.847 741.276 643.926 732.974ZM869.235 758.31L867.822 758.872C866.304 759.468 864.776 760.045 863.237 760.602C862.839 763.033 862.427 765.426 862.002 767.78C863.873 766.94 865.723 766.061 867.554 765.147C868.126 762.911 868.686 760.632 869.235 758.31ZM284.756 588.769C246.951 603.101 220.607 657.44 194.987 720.475C235.966 634.28 276.863 570.394 349.287 603.585C373.788 614.815 394.77 625.594 414.866 636.445C392.78 622.87 369.736 609.385 341.338 594.905C320.468 584.261 301.955 582.252 284.756 588.769ZM882.728 760.996L881.964 761.472C881.24 761.917 880.514 762.357 879.784 762.792C879.325 764.12 878.863 765.432 878.396 766.728C879.259 766.067 880.115 765.395 880.966 764.713C881.555 763.491 882.143 762.252 882.728 760.996ZM878.711 754.193L877.791 754.621C876.364 755.278 874.928 755.918 873.482 756.541C872.991 758.676 872.49 760.778 871.979 762.846C873.582 761.983 875.168 761.092 876.739 760.175C877.404 758.216 878.062 756.223 878.711 754.193ZM861.092 749.919L860.746 750.021C858.434 750.693 856.126 751.322 853.819 751.908C853.61 754.611 853.383 757.295 853.139 759.957C855.421 759.271 857.679 758.537 859.915 757.759C860.321 755.189 860.714 752.576 861.092 749.919ZM278.793 575.058C241.309 589.537 217.108 646.632 194.019 712.969C219.195 651.754 245.503 599.652 283.434 585.266C301.668 578.352 321.17 580.412 343.034 591.564C364.63 602.577 383.128 613.006 400.454 623.333C381.081 610.196 360.738 597.253 334.949 582.819C314.002 571.089 295.635 568.548 278.793 575.058ZM850.943 740.171L850.332 740.299C828.101 744.947 806.417 746.6 784.676 745.455C741.119 743.17 702.894 739.265 668.638 734.333C700.614 740.763 736.386 746.852 777.144 752.367C802.069 755.748 826.103 754.723 850.37 748.888C850.581 746.007 850.771 743.1 850.943 740.171ZM889.655 756.464L889.161 756.804C888.953 756.946 888.745 757.087 888.536 757.228C888.278 757.81 888.02 758.389 887.762 758.965C888.051 758.706 888.339 758.448 888.626 758.189C888.969 757.617 889.312 757.043 889.655 756.464ZM871.862 746.466L870.518 746.93C868.687 747.556 866.858 748.155 865.032 748.727C864.675 751.294 864.304 753.823 863.919 756.312C866.06 755.509 868.179 754.667 870.279 753.788C870.818 751.39 871.345 748.949 871.862 746.466ZM887.685 749.73L887.467 749.845C886.095 750.568 884.714 751.276 883.324 751.968C882.778 753.733 882.225 755.471 881.666 757.184C882.986 756.354 884.294 755.506 885.591 754.64C886.294 753.03 886.992 751.393 887.685 749.73ZM272.67 561.363C235.917 575.836 213.089 636.968 193.07 704.379C215.711 640.348 239.937 586.054 277.448 571.558C295.39 564.624 314.794 567.242 336.772 579.551C355.663 590.123 371.635 599.894 386.438 609.522C369.658 597.132 351.437 584.633 328.571 570.73C307.491 557.919 289.205 554.855 272.67 561.363ZM882.229 742.575L880.343 743.323C878.887 743.894 877.433 744.448 875.982 744.985C875.502 747.347 875.012 749.669 874.512 751.954C876.442 751.088 878.354 750.192 880.25 749.267C880.918 747.077 881.578 744.846 882.229 742.575ZM896.039 745.075L895.004 745.679C894.301 746.086 893.595 746.489 892.887 746.888C892.379 748.151 891.869 749.399 891.357 750.634C892.292 749.96 893.22 749.278 894.143 748.587C894.777 747.432 895.409 746.261 896.039 745.075ZM862.727 737.411L862.155 737.557C859.651 738.194 857.155 738.794 854.667 739.356C854.501 742.242 854.317 745.108 854.114 747.951C856.625 747.296 859.139 746.59 861.657 745.832C862.029 743.07 862.385 740.264 862.727 737.411ZM851.568 727.679L850.624 727.869C830.806 731.795 811.594 734.084 792.724 734.816C756.339 736.227 723.365 735.694 693.081 733.798C720.927 737.219 751.315 739.951 784.869 741.72C806.796 742.871 828.68 741.131 851.158 736.288C851.312 733.437 851.448 730.567 851.568 727.679ZM892.211 738.311L890.236 739.193C889.031 739.726 887.827 740.248 886.625 740.758C886.039 742.855 885.445 744.918 884.844 746.95C886.552 746.063 888.245 745.152 889.925 744.219C890.693 742.285 891.455 740.315 892.211 738.311ZM874.255 734.205L874.101 734.248C871.596 734.998 869.1 735.71 866.613 736.385C866.287 739.169 865.946 741.91 865.591 744.609C867.967 743.842 870.348 743.031 872.734 742.172C873.253 739.563 873.76 736.907 874.255 734.205ZM266.439 547.689C230.061 562.285 209.219 625.638 191.6 696.262C211.403 630.783 234.364 572.428 271.307 557.881C288.748 551.006 308.672 554.258 330.505 567.533C346.719 577.387 360.602 586.535 373.287 595.436C358.642 583.788 342.364 571.846 322.192 558.642C300.949 544.739 282.714 541.158 266.439 547.689ZM851.989 715.353L846.856 716.392C799.804 725.743 757.328 730.166 718.49 731.291C741.571 732.096 766.173 732.1 792.574 731.075C811.827 730.328 831.446 727.942 851.718 723.831C851.823 721.02 851.913 718.193 851.989 715.353ZM903.753 740.354L902.366 741.233C902.305 741.271 902.243 741.31 902.182 741.348C901.916 741.872 901.651 742.391 901.386 742.908C901.881 742.502 902.374 742.095 902.866 741.686C903.163 741.243 903.458 740.799 903.753 740.354ZM885.485 730.606L884.164 731.054C882.196 731.714 880.235 732.352 878.28 732.967C877.813 735.57 877.334 738.131 876.844 740.65C879.062 739.805 881.285 738.92 883.515 737.993C884.182 735.574 884.838 733.112 885.485 730.606ZM901.766 733.767L900.214 734.535C899.154 735.056 898.094 735.568 897.037 736.071C896.393 737.823 895.746 739.551 895.094 741.255C896.522 740.409 897.939 739.549 899.347 738.674C900.156 737.063 900.962 735.428 901.766 733.767ZM864.073 724.976L862.589 725.316C860.144 725.875 857.709 726.409 855.283 726.918C855.167 729.782 855.034 732.63 854.885 735.459C857.642 734.824 860.411 734.143 863.191 733.415C863.341 732.095 863.487 730.764 863.63 729.423C863.783 727.946 863.93 726.464 864.073 724.976ZM896.402 726.686L896.386 726.69C894.154 727.534 891.932 728.349 889.718 729.136C889.119 731.502 888.512 733.831 887.896 736.123C889.942 735.229 891.994 734.299 894.052 733.334C894.842 731.154 895.625 728.939 896.402 726.686ZM536.485 710.404L537.02 710.731C537.462 710.815 537.903 710.899 538.346 710.983C538.187 710.893 538.025 710.803 537.864 710.713C537.404 710.611 536.944 710.508 536.485 710.404ZM260.13 534.024C224.636 548.535 205.182 614.879 190.244 686.394C207.657 618.472 228.704 558.799 265.052 544.214C282.297 537.299 302.211 541.092 324.235 555.511C337.952 564.49 349.873 572.884 360.704 580.996C347.89 570.139 333.444 558.891 315.818 546.555C294.394 531.568 276.172 527.472 260.13 534.024ZM523.04 707.328L524.183 708.104C524.278 708.168 524.374 708.233 524.469 708.298C525.182 708.439 525.896 708.579 526.612 708.719C526.126 708.418 525.644 708.118 525.164 707.82C524.456 707.657 523.748 707.493 523.04 707.328ZM868.631 723.892L867.917 724.064C867.735 725.99 867.546 727.906 867.35 729.814C867.259 730.669 867.166 731.521 867.072 732.369C869.703 731.641 872.345 730.87 874.997 730.058C875.349 728.058 875.694 726.033 876.033 723.983L876.366 721.938C873.776 722.616 871.198 723.267 868.631 723.892ZM910.91 729.01L910.292 729.344C909.271 729.894 908.252 730.436 907.235 730.969C906.638 732.246 906.038 733.51 905.437 734.76C906.556 734.019 907.668 733.268 908.774 732.509C909.492 731.348 910.204 730.182 910.91 729.01ZM509.811 704.222L511.128 705.205C511.401 705.409 511.674 705.612 511.948 705.816C512.998 706.027 514.046 706.235 515.096 706.445C514.37 705.947 513.65 705.452 512.935 704.96C511.894 704.715 510.852 704.469 509.811 704.222ZM496.978 701.167L497.93 701.947C498.505 702.416 499.083 702.887 499.665 703.36C500.916 703.611 502.168 703.861 503.424 704.113C502.509 703.423 501.602 702.737 500.703 702.055C499.46 701.76 498.218 701.463 496.978 701.167ZM906.998 722.487L906.706 722.607C904.783 723.401 902.866 724.174 900.957 724.926C900.261 726.991 899.559 729.025 898.852 731.029C900.691 730.123 902.536 729.19 904.387 728.229C905.262 726.346 906.131 724.432 906.998 722.487ZM484.493 698.189L484.659 698.337C485.637 699.208 486.624 700.085 487.622 700.967C489.027 701.245 490.436 701.523 491.849 701.804C490.781 700.924 489.726 700.052 488.682 699.186C487.284 698.853 485.887 698.52 484.493 698.189ZM888.438 718.606L887.008 719.019C884.77 719.66 882.542 720.282 880.322 720.884C880.128 722.126 879.928 723.362 879.724 724.594C879.49 726.007 879.254 727.408 879.014 728.798C881.527 727.99 884.051 727.145 886.586 726.261C887.213 723.751 887.83 721.2 888.438 718.606ZM513.903 701.078L514.029 701.165C514.18 701.269 514.331 701.373 514.482 701.478C514.79 701.55 515.094 701.622 515.399 701.694L514.827 701.332C514.519 701.248 514.211 701.163 513.903 701.078ZM500.837 697.453L501.238 697.759C501.604 698.037 501.971 698.316 502.339 698.596C503.064 698.769 503.785 698.941 504.508 699.113L503 698.057C502.278 697.855 501.557 697.654 500.837 697.453ZM253.757 520.372C218.773 534.937 201.122 602.36 188.445 676.67C203.561 606.182 222.866 545.216 258.72 530.557C275.789 523.579 295.718 527.925 317.96 543.49C329.382 551.482 339.473 559.018 348.651 566.285C337.43 556.263 324.707 545.82 309.448 534.477C288.116 518.614 269.371 513.862 253.757 520.372ZM865.157 712.556L859.044 713.881C857.925 714.12 856.809 714.356 855.695 714.589C855.628 717.424 855.539 720.25 855.436 723.061C858.421 722.425 861.422 721.754 864.438 721.045C864.694 718.232 864.933 715.402 865.157 712.556ZM918.956 724.503L918.436 724.803C918.087 725.004 917.739 725.204 917.39 725.403C917.073 725.952 916.752 726.503 916.431 727.053L917.774 726.054C918.17 725.538 918.564 725.021 918.956 724.503ZM900.259 715.021L899.486 715.266C897.165 715.996 894.854 716.705 892.553 717.394C892.402 718.06 892.248 718.725 892.092 719.388C891.668 721.199 891.24 722.99 890.807 724.761C893.182 723.896 895.569 722.999 897.967 722.069C898.737 719.758 899.501 717.409 900.259 715.021ZM488.198 693.908L488.312 694.004C489.004 694.582 489.7 695.162 490.402 695.745C491.391 695.982 492.38 696.218 493.371 696.455C492.621 695.877 491.879 695.305 491.143 694.735C490.162 694.46 489.179 694.184 488.198 693.908ZM917.248 718.077L917.162 718.114C915.44 718.883 913.724 719.635 912.014 720.37C911.285 722.049 910.552 723.706 909.817 725.34C911.423 724.467 913.034 723.572 914.65 722.655C915.526 721.136 916.391 719.609 917.248 718.077ZM475.928 690.461L477.599 691.985C477.956 692.309 478.314 692.633 478.673 692.959C479.867 693.242 481.058 693.523 482.251 693.806C481.312 693.015 480.386 692.232 479.469 691.453C478.288 691.123 477.107 690.791 475.928 690.461ZM878.23 709.571L877.713 709.693C874.781 710.383 871.866 711.053 868.967 711.706C868.757 714.524 868.524 717.333 868.277 720.125C871.17 719.417 874.079 718.675 877.003 717.898C877.43 715.142 877.838 712.366 878.23 709.571ZM911.838 711.215L910.034 711.827C908.225 712.438 906.422 713.035 904.626 713.62C904.567 713.812 904.507 714.004 904.447 714.196C903.803 716.249 903.155 718.275 902.503 720.273C904.718 719.38 906.944 718.457 909.179 717.506C910.07 715.443 910.955 713.346 911.838 711.215ZM492.15 690.777L492.861 691.328C493.211 691.426 493.561 691.524 493.911 691.623L493.21 691.122C492.856 691.007 492.503 690.892 492.15 690.777ZM891.128 706.435L890.42 706.613C887.641 707.306 884.878 707.983 882.129 708.643C881.757 711.387 881.362 714.118 880.952 716.83C883.752 716.06 886.567 715.259 889.397 714.425C889.992 711.784 890.568 709.12 891.128 706.435ZM479.664 686.699L481.272 688.07C481.966 688.265 482.661 688.46 483.356 688.656C482.811 688.227 482.27 687.8 481.732 687.375C481.044 687.151 480.354 686.925 479.664 686.699ZM926.873 713.634L925.632 714.222C924.738 714.645 923.846 715.063 922.955 715.476C922.329 716.628 921.697 717.779 921.059 718.927C922.258 718.213 923.46 717.487 924.664 716.75C925.405 715.715 926.141 714.676 926.873 713.634ZM467.58 682.746L468.716 683.808C469.097 684.163 469.48 684.52 469.864 684.877C470.819 685.144 471.771 685.409 472.725 685.675C471.946 685.004 471.176 684.336 470.411 683.671C469.466 683.362 468.523 683.054 467.58 682.746ZM923.118 707.24L922.882 707.325C920.761 708.095 918.65 708.85 916.546 709.587L916.783 709.007C915.914 711.152 915.041 713.264 914.166 715.344C916.189 714.45 918.221 713.533 920.262 712.593C921.226 710.813 922.177 709.029 923.118 707.24ZM951.6 338.043L950.716 337.984C938.667 337.339 927.324 338.002 916.844 340.144C879.761 347.726 856.768 373.969 848.509 418.16C844.247 440.952 847.103 488.872 850.405 544.363C853.488 596.157 857.033 655.708 855.798 710.727C858.99 710.058 862.21 709.363 865.452 708.644C869.268 657.02 868.447 600.521 867.716 549.953C866.922 495.135 866.237 447.791 871.862 423.191C882.811 375.297 909.64 346.653 951.6 338.043ZM903.846 703.159L903.341 703.293C900.596 704.018 897.864 704.727 895.147 705.42C894.617 708.029 894.066 710.624 893.499 713.198C896.192 712.38 898.899 711.533 901.621 710.657C902.38 708.183 903.121 705.682 903.846 703.159ZM471.425 679.585L472.302 680.35C472.657 680.466 473.012 680.582 473.367 680.698L472.479 679.983C472.127 679.85 471.776 679.717 471.425 679.585ZM967.16 339.599L966.656 339.643C962.041 340.052 957.55 340.68 953.196 341.54C912.309 349.62 886.172 377.371 875.501 424.025C869.984 448.184 870.665 495.32 871.457 549.902C872.185 600.177 872.996 656.307 869.268 707.786C872.412 707.078 875.581 706.344 878.771 705.587C885.401 656.174 887.209 601.233 888.828 552.109C890.549 499.678 892.04 454.399 898.883 428.917C911.364 382.439 937.833 353.027 977.649 341.318C974.107 340.656 970.61 340.082 967.16 339.599ZM935.508 709.41L934.203 710.063C934.041 710.144 933.88 710.224 933.718 710.304C933.423 710.74 933.126 711.176 932.828 711.611C933.405 711.237 933.984 710.86 934.564 710.481C934.88 710.123 935.194 709.767 935.508 709.41ZM916.392 699.756L909.883 701.543C909.273 701.708 908.664 701.873 908.055 702.037C907.377 704.455 906.679 706.859 905.965 709.24C908.535 708.388 911.12 707.511 913.717 706.609L913.32 707.598C914.366 705.018 915.389 702.403 916.392 699.756ZM934.005 703.16L933.756 703.256C931.945 703.952 930.14 704.637 928.342 705.31L929.106 703.83C928.059 705.868 927 707.903 925.928 709.932C927.673 709.098 929.425 708.247 931.183 707.378C932.132 705.976 933.072 704.57 934.005 703.16ZM459.492 675.081L460.394 675.948C460.668 676.21 460.943 676.473 461.219 676.736C461.907 676.961 462.591 677.183 463.276 677.406C462.684 676.882 462.098 676.362 461.517 675.844C460.843 675.591 460.167 675.336 459.492 675.081ZM985.917 343.007L985.73 343.067C943.316 352.925 915.322 382.108 902.499 429.889C895.767 454.954 894.28 500.034 892.566 552.234C890.961 600.971 889.164 655.431 882.673 704.651C885.747 703.91 888.842 703.145 891.955 702.36C901.47 654.969 906.006 601.306 910.062 553.374C914.258 503.699 917.885 460.803 925.912 434.648C939.274 391.101 963.988 361.529 999.578 346.376C994.961 345.12 990.406 343.997 985.917 343.007ZM928.718 696.239L923.132 697.854C922.369 698.072 921.608 698.288 920.848 698.504C920.049 700.673 919.228 702.828 918.394 704.961C920.811 704.098 923.241 703.213 925.683 702.305C925.716 702.241 925.749 702.178 925.781 702.115C926.774 700.18 927.753 698.221 928.718 696.239ZM1005.51 348.034L1005.18 348.166C968.406 362.346 943.002 391.703 929.487 435.749C921.582 461.519 917.967 504.234 913.782 553.689C909.773 601.135 905.285 654.177 895.974 701.337C898.972 700.567 901.988 699.778 905.021 698.968C917.697 653.221 925.125 600.284 931.755 553.049C938.245 506.777 943.847 466.814 952.941 440.381C966.812 400.041 989.541 370.764 1020.79 352.851L1020.78 352.836C1015.63 351.098 1010.54 349.495 1005.51 348.034ZM944.302 699.094L942.57 699.792C941.716 700.134 940.864 700.474 940.014 700.811C939.332 701.864 938.645 702.916 937.955 703.966C939.291 703.281 940.632 702.585 941.978 701.879C942.758 700.951 943.532 700.023 944.302 699.094ZM451.703 667.513L452.586 668.382C452.642 668.438 452.698 668.493 452.755 668.548C453.13 668.688 453.504 668.829 453.879 668.969L452.799 667.986C452.434 667.828 452.069 667.671 451.703 667.513ZM940.769 692.649L936.602 693.912C935.581 694.219 934.562 694.522 933.545 694.824L933.552 694.816C932.667 696.682 931.77 698.528 930.861 700.356C933.073 699.51 935.296 698.647 937.529 697.766C937.774 697.388 938.017 697.011 938.26 696.633C939.104 695.319 939.94 693.991 940.769 692.649ZM1025.59 354.489L1025.3 354.656C993.471 371.993 970.41 401.08 956.481 441.605C947.506 467.694 941.924 507.491 935.456 553.575C928.913 600.194 921.6 652.356 909.221 697.838C912.131 697.048 915.058 696.239 918.002 695.412L918.009 695.406C934.237 650.984 944.811 598.174 954.238 551.107C962.348 510.596 970.008 472.328 979.971 446.118C994.07 409.008 1014.8 380.436 1041.95 360.591C1036.44 358.418 1030.98 356.382 1025.59 354.489ZM953.524 695.29L951.578 696.105C951.282 696.471 950.987 696.836 950.69 697.201C951.348 696.841 952.008 696.477 952.67 696.111C952.956 695.837 953.24 695.563 953.524 695.29ZM1046.1 362.243L1045.86 362.429C1018.45 381.912 997.573 410.319 983.466 447.453C973.614 473.371 965.983 511.488 957.902 551.842C948.629 598.156 938.241 650.011 922.436 694.156C925.235 693.356 928.051 692.539 930.881 691.705C951.22 648.318 965.324 594.986 977.88 547.513C987.436 511.363 996.469 477.225 1007 451.86C1020.93 418.325 1039.99 390.781 1063.62 369.685C1057.73 367.063 1051.89 364.582 1046.1 362.243ZM952.43 689.036L950.3 689.711C948.91 690.147 947.524 690.579 946.142 691.006L946.15 690.999C945.265 692.478 944.372 693.943 943.47 695.392C945.394 694.61 947.327 693.816 949.268 693.009C949.769 692.388 950.266 691.768 950.761 691.148C951.32 690.449 951.876 689.745 952.43 689.036ZM1067.4 371.37L1066.79 371.912C1043.25 392.721 1024.28 420.002 1010.45 453.295C1000.02 478.427 991.017 512.45 981.492 548.471C969.186 595.014 955.392 647.162 935.664 690.284C938.318 689.487 940.987 688.676 943.669 687.85C968.879 645.242 987.04 590.603 1003.19 542.015C1013.56 510.796 1023.36 481.315 1034.02 457.601C1048.63 425.155 1066.13 399.656 1085.03 379.661C1079.12 376.775 1073.24 374.009 1067.4 371.37ZM963.454 685.496L958.653 687.05C957.915 688.038 957.172 689.018 956.424 689.989C957.913 689.35 959.407 688.704 960.906 688.051C961.704 687.255 962.497 686.46 963.286 685.665L963.454 685.496ZM1088.56 381.391L1088.49 381.484C1069.56 401.312 1052.04 426.703 1037.44 459.142C1026.84 482.681 1017.07 512.078 1006.73 543.199C990.97 590.633 973.298 643.813 948.958 686.206C951.415 685.436 953.884 684.653 956.365 683.857C987.512 641.799 1010.45 584.819 1030.82 534.215C1041.14 508.577 1050.88 484.361 1061.06 463.353C1074.25 436.118 1089.68 411.863 1107.04 390.837C1100.86 387.573 1094.69 384.421 1088.56 381.391ZM973.329 682.214L971.277 682.907C971.205 682.931 971.134 682.955 971.062 682.979C970.761 683.302 970.458 683.626 970.155 683.948C970.925 683.599 971.697 683.249 972.47 682.897C972.756 682.671 973.042 682.443 973.329 682.214ZM1110.41 392.626L1109.03 394.314C1092.22 414.86 1077.25 438.497 1064.42 464.99C1054.3 485.875 1044.58 510.034 1034.29 535.619C1014.5 584.778 992.296 639.927 962.412 681.896C964.585 681.187 966.771 680.465 968.965 679.733C1007.56 637.981 1036.24 577.228 1061.7 523.337C1070.77 504.119 1079.35 485.971 1088.09 469.104C1100.65 444.877 1114.33 422.741 1128.98 402.824C1122.78 399.321 1116.58 395.919 1110.41 392.626ZM1132.26 404.678L1130.39 407.227C1116.46 426.418 1103.42 447.656 1091.41 470.829C1082.7 487.629 1074.14 505.752 1065.07 524.938C1040.5 576.982 1012.92 635.391 976.199 677.292C977.954 676.696 979.719 676.09 981.489 675.478L981.497 675.471C1029.69 633.802 1065.46 567.126 1097.16 508.035C1103.23 496.711 1109.19 485.583 1115.12 474.851C1125.72 455.657 1137.77 435.584 1151.19 415.734C1144.88 411.958 1138.57 408.269 1132.26 404.678ZM1154.4 417.654L1154.26 417.857C1140.91 437.6 1128.94 457.57 1118.39 476.662C1112.47 487.386 1106.51 498.501 1100.45 509.802C1070.08 566.423 1036 629.97 990.657 672.266C991.725 671.889 992.799 671.507 993.876 671.122L993.883 671.115C1055.04 629.297 1099.68 553.1 1139.2 485.642L1142.15 480.607C1152.19 463.473 1162.58 446.254 1173.32 429.323C1167.03 425.355 1160.71 421.463 1154.4 417.654ZM1176.54 431.348L1175.16 433.515C1164.74 449.93 1154.81 466.406 1145.37 482.496L1142.42 487.536C1105.1 551.244 1063.24 622.706 1007.01 666.185C1076.94 628.66 1127.32 553.873 1169.19 486.359C1175.24 476.603 1181.25 466.844 1187.23 457.128C1190 452.621 1192.77 448.122 1195.53 443.639C1189.23 439.478 1182.9 435.378 1176.54 431.348ZM1198.66 445.699L1197.06 448.287C1194.85 451.882 1192.63 455.486 1190.41 459.096C1184.43 468.807 1178.41 478.57 1172.36 488.335C1134.23 549.827 1089.05 617.328 1028.36 657.729C1107.69 621.416 1166.62 541.262 1217.5 458.428C1211.26 454.137 1204.98 449.89 1198.66 445.699ZM1211.09 425.613L1210.33 426.84C1207.1 432.027 1203.88 437.244 1200.64 442.482C1206.2 446.147 1211.51 449.707 1216.53 453.124L1219.5 455.155C1223.1 449.264 1226.66 443.361 1230.19 437.462C1223.86 433.448 1217.49 429.495 1211.09 425.613ZM1188.82 412.474L1187.89 413.873C1184.73 418.642 1181.61 423.431 1178.53 428.229C1185.12 432.374 1191.46 436.455 1197.52 440.427C1200.98 434.817 1204.43 429.232 1207.88 423.683C1201.55 419.867 1195.19 416.128 1188.82 412.474ZM1223.8 405.333L1223.55 405.731C1220.13 411.136 1216.71 416.588 1213.29 422.076C1219.99 426.137 1226.35 430.094 1232.33 433.885C1235.87 427.927 1239.38 421.978 1242.87 416.052C1236.85 412.573 1230.47 408.979 1223.8 405.333ZM1166.66 400.151L1166.04 401.015C1162.77 405.537 1159.57 410.087 1156.44 414.653C1162.9 418.523 1169.2 422.387 1175.31 426.205C1178.66 420.957 1182.04 415.739 1185.46 410.564C1179.2 407.002 1172.93 403.529 1166.66 400.151ZM1201.65 393.648L1201.08 394.459C1197.72 399.277 1194.4 404.133 1191.13 409.015C1197.68 412.767 1204.02 416.492 1210.09 420.145C1213.56 414.569 1217.03 409.033 1220.5 403.544C1214.44 400.265 1208.14 396.951 1201.65 393.648ZM1144.64 388.692L1144.62 388.723C1141.16 392.964 1137.75 397.323 1134.4 401.799C1140.8 405.424 1147.08 409.08 1153.23 412.735C1156.52 407.927 1159.89 403.135 1163.34 398.375C1157.1 395.045 1150.86 391.815 1144.64 388.692ZM1236.31 385.771L1234.55 388.491C1231.69 392.926 1228.83 397.401 1225.97 401.911C1232.31 405.379 1238.63 408.937 1244.91 412.57C1248.33 406.729 1251.73 400.909 1255.11 395.128C1248.87 391.91 1242.6 388.788 1236.31 385.771ZM1179.68 382.904L1178.48 384.439C1175.3 388.52 1172.18 392.639 1169.13 396.787C1175.5 400.216 1181.72 403.663 1187.77 407.096C1191.18 401.97 1194.63 396.889 1198.11 391.862C1192.12 388.849 1185.96 385.851 1179.68 382.904ZM1123.08 378.299L1121.97 379.487C1118.83 382.854 1115.75 386.32 1112.72 389.884C1118.93 393.188 1125.07 396.551 1131.11 399.946C1134.43 395.512 1137.79 391.192 1141.21 386.986C1135.15 383.978 1129.1 381.08 1123.08 378.299ZM1214.48 375.759L1212.41 378.578C1209.58 382.455 1206.77 386.367 1203.99 390.306C1210.23 393.481 1216.46 396.756 1222.67 400.118C1226.08 394.747 1229.49 389.42 1232.91 384.151C1226.78 381.246 1220.63 378.446 1214.48 375.759ZM1157.98 373.168L1157.26 373.968C1153.9 377.687 1150.59 381.511 1147.32 385.441C1153.59 388.588 1159.76 391.786 1165.81 395.009C1169.2 390.396 1172.66 385.817 1176.21 381.286C1170.24 378.52 1164.15 375.804 1157.98 373.168ZM1101.57 368.82L1101.5 368.886C1098 372.012 1094.53 375.308 1091.11 378.781C1097.23 381.812 1103.31 384.922 1109.33 388.092C1112.65 384.161 1116.04 380.349 1119.49 376.655C1113.49 373.92 1107.51 371.306 1101.57 368.82ZM1192.84 366.786L1191.57 368.283C1188.41 372.03 1185.3 375.824 1182.24 379.658C1188.31 382.503 1194.38 385.459 1200.45 388.508C1203.84 383.666 1207.26 378.87 1210.72 374.138C1204.76 371.573 1198.8 369.12 1192.84 366.786ZM1248.51 367.246L1247.78 368.333C1244.61 373.079 1241.44 377.885 1238.28 382.744C1244.51 385.735 1250.73 388.833 1256.92 392.023L1256.35 392.991C1259.87 386.965 1263.36 380.986 1266.83 375.066C1260.74 372.345 1254.63 369.736 1248.51 367.246ZM1136.9 364.615L1135.58 365.842C1132.36 368.86 1129.19 371.975 1126.07 375.185C1132.07 377.966 1138.01 380.821 1143.88 383.728C1147.32 379.577 1150.8 375.541 1154.33 371.622C1148.59 369.205 1142.77 366.862 1136.9 364.615ZM1080.86 360.623L1079.48 361.646C1076.34 363.961 1073.28 366.378 1070.28 368.897C1076.06 371.522 1081.82 374.241 1087.55 377.037C1090.9 373.601 1094.29 370.333 1097.72 367.227C1092.06 364.899 1086.44 362.697 1080.86 360.623ZM1171.6 358.958L1170.29 360.25C1167.11 363.423 1163.96 366.687 1160.85 370.041C1166.81 372.591 1172.79 375.26 1178.77 378.031C1182.17 373.761 1185.63 369.534 1189.16 365.365C1183.29 363.105 1177.43 360.968 1171.6 358.958ZM1115.92 357.078L1114.84 357.887C1111.53 360.404 1108.24 363.057 1104.97 365.852C1110.84 368.323 1116.68 370.888 1122.46 373.528C1125.91 369.945 1129.42 366.48 1132.99 363.132C1127.33 361.014 1121.64 358.989 1115.92 357.078ZM1227.16 359.075L1226.41 360.026C1223.13 364.233 1219.88 368.498 1216.67 372.81C1222.75 375.469 1228.82 378.243 1234.88 381.115C1238.23 375.956 1241.59 370.855 1244.96 365.821C1239.03 363.454 1233.09 361.203 1227.16 359.075ZM1060.09 353.439L1059.33 353.868C1055.97 355.769 1052.69 357.786 1049.5 359.92C1055.16 362.233 1060.83 364.662 1066.48 367.186C1069.77 364.36 1073.16 361.656 1076.62 359.075C1071.06 357.057 1065.54 355.178 1060.09 353.439ZM1151.07 352.393L1149.83 353.399C1146.57 356.049 1143.35 358.791 1140.19 361.623C1145.84 363.801 1151.51 366.09 1157.19 368.484C1160.63 364.751 1164.11 361.129 1167.63 357.617C1162.09 355.753 1156.57 354.011 1151.07 352.393ZM1095.81 350.877L1094.73 351.518C1091.37 353.516 1088.07 355.619 1084.85 357.825C1090.28 359.865 1095.69 362.007 1101.09 364.233C1104.55 361.215 1108.05 358.356 1111.57 355.648C1106.33 353.953 1101.07 352.357 1095.81 350.877ZM1205.96 352.006L1205.32 352.7C1201.92 356.376 1198.59 360.114 1195.31 363.907C1201.17 366.214 1207.04 368.639 1212.91 371.167C1216.28 366.6 1219.69 362.091 1223.12 357.653C1217.4 355.648 1211.67 353.765 1205.96 352.006ZM1040.15 347.661L1039.69 347.859C1036.3 349.232 1033 350.72 1029.78 352.323C1034.93 354.177 1040.11 356.147 1045.29 358.215C1048.5 355.996 1051.79 353.893 1055.18 351.908C1050.11 350.365 1045.1 348.947 1040.15 347.661ZM1261.05 348.869C1257.55 353.893 1254.05 358.996 1250.57 364.175C1256.62 366.643 1262.66 369.229 1268.67 371.919C1272.04 366.187 1275.38 360.513 1278.71 354.91C1272.83 352.768 1266.94 350.752 1261.05 348.869ZM1130.68 346.935L1130.35 347.143C1126.81 349.369 1123.29 351.733 1119.78 354.244C1125.24 356.083 1130.73 358.048 1136.25 360.124C1139.67 357.023 1143.15 354.022 1146.68 351.128C1141.31 349.604 1135.98 348.206 1130.68 346.935ZM1075.72 345.808L1075.44 345.927C1071.87 347.448 1068.38 349.081 1064.97 350.829C1070.16 352.522 1075.36 354.326 1080.55 356.226C1083.89 353.874 1087.3 351.63 1090.79 349.498C1085.76 348.152 1080.73 346.918 1075.72 345.808ZM1185.28 346.184L1183.7 347.585C1180.6 350.358 1177.52 353.214 1174.47 356.153C1180.18 358.137 1185.9 360.245 1191.63 362.463C1195.03 358.522 1198.48 354.632 1201.99 350.81C1196.41 349.141 1190.83 347.598 1185.28 346.184ZM1020.67 343.247L1020.59 343.279C1017.33 344.105 1014.15 345.033 1011.05 346.063C1015.64 347.471 1020.25 348.983 1024.88 350.591C1027.87 349.013 1030.93 347.532 1034.06 346.15C1029.54 345.059 1025.07 344.092 1020.67 343.247ZM1240.33 342.802L1238.41 345.102C1235.42 348.707 1232.46 352.365 1229.52 356.071C1235.36 358.179 1241.2 360.405 1247.02 362.739C1250.45 357.653 1253.88 352.633 1257.32 347.695C1251.65 345.937 1245.99 344.304 1240.33 342.802ZM1056.51 342.172L1055.18 342.549C1052.24 343.385 1049.36 344.296 1046.53 345.282C1050.99 346.501 1055.46 347.817 1059.94 349.219C1063.03 347.545 1066.19 345.964 1069.42 344.478C1065.1 343.609 1060.79 342.837 1056.51 342.172ZM1111.17 342.819L1110.98 342.916C1107.43 344.573 1103.96 346.334 1100.55 348.198C1105.46 349.617 1110.41 351.145 1115.38 352.774C1118.76 350.303 1122.15 347.959 1125.56 345.745C1120.72 344.658 1115.92 343.681 1111.17 342.819ZM1001.7 340.334L1001.53 340.36C999.095 340.641 996.679 340.978 994.287 341.373C997.809 342.259 1001.35 343.217 1004.92 344.242C1007.28 343.355 1009.7 342.528 1012.15 341.763C1008.62 341.197 1005.14 340.722 1001.7 340.334ZM1165.41 341.668L1164.68 342.183C1161.25 344.58 1157.87 347.074 1154.53 349.662C1159.83 351.255 1165.16 352.965 1170.5 354.781C1173.93 351.45 1177.39 348.218 1180.88 345.09C1175.7 343.832 1170.54 342.689 1165.41 341.668ZM1037.86 339.959L1035.32 340.316C1033.88 340.535 1032.45 340.772 1031.03 341.026L1030.08 341.203C1033.44 341.943 1036.81 342.746 1040.2 343.607C1042.63 342.664 1045.1 341.776 1047.61 340.944C1044.34 340.546 1041.09 340.217 1037.86 339.959ZM1091.78 339.935L1090.96 340.2C1087.91 341.165 1084.9 342.203 1081.96 343.315L1081.95 343.304C1086.41 344.356 1090.9 345.507 1095.43 346.752C1098.49 344.994 1101.62 343.32 1104.79 341.731C1100.42 341.029 1096.08 340.429 1091.78 339.935ZM1219.65 337.889L1217.25 340.265C1214.37 343.148 1211.52 346.081 1208.71 349.058C1214.3 350.797 1219.89 352.658 1225.48 354.628C1228.93 350.229 1232.41 345.904 1235.92 341.661C1230.49 340.277 1225.06 339.019 1219.65 337.889ZM1145.71 338.336L1144.03 339.226C1141.03 340.814 1138.04 342.495 1135.05 344.271C1140.04 345.524 1145.07 346.885 1150.12 348.352C1153.46 345.707 1156.85 343.153 1160.29 340.694C1155.4 339.788 1150.54 339.003 1145.71 338.336ZM1073.22 338.462L1073.47 338.431C1070.87 338.872 1068.31 339.364 1065.78 339.907L1065.78 339.897C1068.98 340.487 1072.2 341.133 1075.45 341.834C1077.82 340.864 1080.22 339.934 1082.65 339.052L1082.65 339.041C1079.48 338.787 1076.34 338.593 1073.22 338.462ZM1126.87 336.334L1126.24 336.568C1123.12 337.712 1120.04 338.931 1117.01 340.222C1121.26 341.06 1125.55 341.993 1129.86 343.011C1133 341.075 1136.14 339.244 1139.29 337.514C1135.12 337.03 1130.98 336.634 1126.87 336.334ZM1199.63 334.292L1197.47 335.99C1194.5 338.347 1191.55 340.779 1188.62 343.283C1193.98 344.681 1199.36 346.202 1204.75 347.833C1208.19 344.158 1211.69 340.544 1215.25 337.005C1210.02 335.974 1204.81 335.069 1199.63 334.292ZM1273.17 331.912L1272.17 333.291C1269.19 337.367 1266.22 341.512 1263.26 345.72C1269.05 347.585 1274.84 349.58 1280.62 351.693C1283.75 346.443 1286.87 341.254 1289.99 336.139C1284.37 334.591 1278.76 333.181 1273.17 331.912ZM1117.77 335.829L1116.67 335.784C1113.85 335.687 1111.06 335.638 1108.28 335.638C1105.74 336.184 1103.22 336.773 1100.74 337.408C1103.98 337.879 1107.23 338.407 1110.5 338.991C1112.9 337.891 1115.32 336.836 1117.77 335.829ZM1180.46 331.998L1180.11 332.213C1176.58 334.312 1173.09 336.508 1169.64 338.799C1174.47 339.807 1179.33 340.928 1184.21 342.147C1187.61 339.193 1191.04 336.331 1194.5 333.568C1189.8 332.935 1185.12 332.411 1180.46 331.998ZM1253.22 327.968L1253.21 327.985C1249.76 331.81 1246.34 335.715 1242.96 339.693C1248.48 341.184 1254 342.798 1259.53 344.528C1262.74 339.956 1265.96 335.453 1269.19 331.031C1263.85 329.879 1258.52 328.857 1253.22 327.968ZM1174.05 331.503L1171.1 331.316C1167.89 331.134 1164.69 331.006 1161.5 330.936C1158.17 332.344 1154.82 333.85 1151.46 335.466C1155.78 336.132 1160.12 336.896 1164.48 337.747C1167.64 335.591 1170.83 333.507 1174.05 331.503ZM1152.33 330.897L1150.61 330.917C1148.17 330.964 1145.74 331.046 1143.33 331.164C1140.73 331.863 1138.15 332.607 1135.61 333.398C1138.7 333.716 1141.81 334.088 1144.93 334.51C1147.4 333.248 1149.87 332.044 1152.33 330.897ZM1233.18 325.228L1232.16 326.136C1229.01 328.959 1225.91 331.847 1222.84 334.793C1228.06 335.92 1233.3 337.165 1238.54 338.522C1241.77 334.671 1245.04 330.889 1248.33 327.186C1243.25 326.407 1238.2 325.754 1233.18 325.228ZM1216.7 323.953L1213.95 323.836C1210.51 326.189 1207.09 328.637 1203.7 331.181C1208.6 331.966 1213.51 332.864 1218.44 333.868C1221.63 330.762 1224.87 327.718 1228.15 324.743C1224.31 324.403 1220.49 324.14 1216.7 323.953ZM1207.66 323.655L1205.89 323.628C1202.47 323.591 1199.06 323.621 1195.68 323.716C1192.43 325.338 1189.21 327.036 1186.02 328.812C1190.18 329.25 1194.36 329.778 1198.55 330.389C1201.57 328.072 1204.6 325.826 1207.66 323.655ZM1186.75 324.13L1184.74 324.264C1182.38 324.435 1180.02 324.641 1177.69 324.881C1175.18 325.71 1172.65 326.595 1170.12 327.536C1173.25 327.7 1176.39 327.919 1179.55 328.188C1181.93 326.791 1184.33 325.439 1186.75 324.13ZM1285.99 314.959L1285.6 315.453C1282.25 319.76 1278.9 324.166 1275.57 328.662C1281.03 329.927 1286.51 331.326 1291.99 332.852C1295.23 327.556 1298.47 322.344 1301.7 317.226C1296.46 316.326 1291.22 315.57 1285.99 314.959ZM1267.45 313.397L1266.96 313.37C1263.33 317.057 1259.74 320.841 1256.19 324.714C1261.3 325.607 1266.44 326.624 1271.59 327.76C1274.92 323.246 1278.27 318.816 1281.62 314.483C1276.89 314.001 1272.16 313.638 1267.45 313.397ZM1261.31 313.149L1260.89 313.139C1256.44 313.018 1252 313.006 1247.58 313.105C1243.99 315.954 1240.45 318.89 1236.96 321.909C1241.71 322.456 1246.49 323.118 1251.28 323.888C1254.6 320.226 1257.94 316.644 1261.31 313.149ZM1220.32 315.182L1218.85 315.378C1216.49 315.702 1214.11 316.066 1211.69 316.474C1209.02 317.559 1206.38 318.697 1203.75 319.883C1206.77 319.89 1209.8 319.949 1212.86 320.058C1215.33 318.382 1217.82 316.758 1220.32 315.182ZM1241.39 313.314L1241.33 313.321C1237.25 313.511 1233.19 313.797 1229.15 314.181C1225.8 316.152 1222.48 318.21 1219.18 320.356C1223.4 320.597 1227.65 320.933 1231.93 321.361C1235.04 318.614 1238.2 315.93 1241.39 313.314ZM1253.52 303.86L1252.15 304.138C1249.58 304.671 1247.02 305.246 1244.48 305.863C1241.94 307.127 1239.41 308.444 1236.89 309.81C1240.01 309.613 1243.14 309.473 1246.28 309.388C1248.67 307.507 1251.08 305.663 1253.52 303.86ZM1313.14 299.525L1310.39 299.402C1306.5 299.247 1302.61 299.183 1298.73 299.213C1295.37 303.207 1292.03 307.311 1288.7 311.515C1293.75 312.146 1298.81 312.909 1303.87 313.803C1306.96 308.952 1310.05 304.189 1313.14 299.525ZM1273.84 300.691L1273.04 300.781C1272.09 300.891 1271.14 301.007 1270.18 301.128C1267.46 301.474 1264.75 301.867 1262.06 302.306C1258.83 304.56 1255.64 306.891 1252.48 309.294C1256.59 309.276 1260.71 309.354 1264.84 309.525C1267.82 306.51 1270.82 303.563 1273.84 300.691ZM1293.79 299.3L1293.13 299.321C1288.99 299.448 1284.85 299.682 1280.73 300.023C1277.29 303.195 1273.88 306.461 1270.5 309.815C1275.1 310.099 1279.72 310.495 1284.34 311.003C1287.48 307.012 1290.63 303.11 1293.79 299.3ZM1261.37 298.24L1260.78 298.481C1260.45 298.613 1260.13 298.746 1259.81 298.879L1260.65 298.737C1260.89 298.571 1261.13 298.405 1261.37 298.24ZM1285.59 289.998L1283.88 290.479C1281.57 291.14 1279.27 291.839 1276.98 292.577C1274.36 294.159 1271.76 295.794 1269.19 297.477L1269.71 297.409C1272.59 297.043 1275.47 296.729 1278.35 296.466C1280.75 294.262 1283.16 292.105 1285.59 289.998ZM1305.74 285.43L1304.85 285.588C1301.52 286.191 1298.21 286.872 1294.91 287.633C1291.66 290.313 1288.43 293.083 1285.23 295.937C1289.15 295.692 1293.06 295.541 1296.98 295.483C1299.89 292.053 1302.81 288.699 1305.74 285.43ZM1324.44 282.975L1323.09 283.093C1321.44 283.246 1319.78 283.419 1318.13 283.611C1315.97 283.864 1313.81 284.15 1311.65 284.469C1308.39 288.024 1305.14 291.691 1301.91 295.459C1306.46 295.484 1311.01 295.633 1315.55 295.906C1318.51 291.503 1321.47 287.189 1324.44 282.975ZM1293.17 283.61L1292.09 284.161C1291.74 284.339 1291.39 284.518 1291.04 284.698L1292.18 284.426C1292.51 284.153 1292.84 283.881 1293.17 283.61ZM1317.04 273.336L1315.87 273.756C1313.9 274.477 1311.94 275.229 1309.98 276.012C1307.11 278.071 1304.25 280.208 1301.42 282.417C1304.21 281.879 1307 281.391 1309.81 280.959C1312.21 278.356 1314.62 275.815 1317.04 273.336ZM1335.57 267.723L1334.39 268.013C1331.22 268.822 1328.08 269.713 1324.96 270.684C1321.85 273.73 1318.76 276.882 1315.69 280.135L1317.7 279.891C1320.89 279.519 1324.08 279.219 1327.27 278.992C1330.03 275.144 1332.79 271.386 1335.57 267.723ZM1345.62 254.963L1344.75 255.366C1342.41 256.459 1340.09 257.607 1337.77 258.807C1335.44 260.839 1333.12 262.932 1330.81 265.085C1333.58 264.338 1336.36 263.65 1339.17 263.026C1341.31 260.282 1343.46 257.592 1345.62 254.963ZM1352.19 247.173L1350.59 248.369C1350.48 248.454 1350.37 248.538 1350.26 248.623L1351.3 248.205C1351.59 247.859 1351.89 247.515 1352.19 247.173Z" fill="url(#paint13_linear_621_1216)"></path>
      <g opacity="0.65041">
        <path opacity="0.25" d="M845 491C850.523 491 855 486.523 855 481C855 475.477 850.523 471 845 471C839.477 471 835 475.477 835 481C835 486.523 839.477 491 845 491Z" fill="url(#paint14_linear_621_1216)"></path>
        <path d="M845 485.4C847.43 485.4 849.4 483.43 849.4 481C849.4 478.57 847.43 476.6 845 476.6C842.57 476.6 840.6 478.57 840.6 481C840.6 483.43 842.57 485.4 845 485.4Z" fill="url(#paint15_radial_621_1216)"></path>
      </g>
      <g opacity="0.65041">
        <path opacity="0.25" d="M905 427C910.523 427 915 422.523 915 417C915 411.477 910.523 407 905 407C899.477 407 895 411.477 895 417C895 422.523 899.477 427 905 427Z" fill="url(#paint16_linear_621_1216)"></path>
        <path d="M905 421.4C907.43 421.4 909.4 419.43 909.4 417C909.4 414.57 907.43 412.6 905 412.6C902.57 412.6 900.6 414.57 900.6 417C900.6 419.43 902.57 421.4 905 421.4Z" fill="url(#paint17_radial_621_1216)"></path>
      </g>
      <g opacity="0.65041">
        <path opacity="0.25" d="M933 569C938.523 569 943 564.523 943 559C943 553.477 938.523 549 933 549C927.477 549 923 553.477 923 559C923 564.523 927.477 569 933 569Z" fill="url(#paint18_linear_621_1216)"></path>
        <path d="M933 563.4C935.43 563.4 937.4 561.43 937.4 559C937.4 556.57 935.43 554.6 933 554.6C930.57 554.6 928.6 556.57 928.6 559C928.6 561.43 930.57 563.4 933 563.4Z" fill="url(#paint19_radial_621_1216)"></path>
      </g>
      <path opacity="0.25" d="M983 399C988.523 399 993 394.523 993 389C993 383.477 988.523 379 983 379C977.477 379 973 383.477 973 389C973 394.523 977.477 399 983 399Z" fill="url(#paint20_linear_621_1216)"></path>
      <path d="M983 393.4C985.43 393.4 987.4 391.43 987.4 389C987.4 386.57 985.43 384.6 983 384.6C980.57 384.6 978.6 386.57 978.6 389C978.6 391.43 980.57 393.4 983 393.4Z" fill="#77899D"></path>
      <g opacity="0.65041">
        <path opacity="0.25" d="M983 399C988.523 399 993 394.523 993 389C993 383.477 988.523 379 983 379C977.477 379 973 383.477 973 389C973 394.523 977.477 399 983 399Z" fill="url(#paint21_linear_621_1216)"></path>
        <path d="M983 393.4C985.43 393.4 987.4 391.43 987.4 389C987.4 386.57 985.43 384.6 983 384.6C980.57 384.6 978.6 386.57 978.6 389C978.6 391.43 980.57 393.4 983 393.4Z" fill="url(#paint22_radial_621_1216)"></path>
      </g>
      <g opacity="0.650117">
        <path opacity="0.25" d="M1359 341C1364.52 341 1369 336.523 1369 331C1369 325.477 1364.52 321 1359 321C1353.48 321 1349 325.477 1349 331C1349 336.523 1353.48 341 1359 341Z" fill="url(#paint23_linear_621_1216)"></path>
        <path d="M1359 335.4C1361.43 335.4 1363.4 333.43 1363.4 331C1363.4 328.57 1361.43 326.6 1359 326.6C1356.57 326.6 1354.6 328.57 1354.6 331C1354.6 333.43 1356.57 335.4 1359 335.4Z" fill="#77899D"></path>
      </g>
      <g opacity="0.650117">
        <path opacity="0.25" d="M1415 401C1420.52 401 1425 396.523 1425 391C1425 385.477 1420.52 381 1415 381C1409.48 381 1405 385.477 1405 391C1405 396.523 1409.48 401 1415 401Z" fill="url(#paint24_linear_621_1216)"></path>
        <path d="M1415 395.4C1417.43 395.4 1419.4 393.43 1419.4 391C1419.4 388.57 1417.43 386.6 1415 386.6C1412.57 386.6 1410.6 388.57 1410.6 391C1410.6 393.43 1412.57 395.4 1415 395.4Z" fill="url(#paint25_radial_621_1216)"></path>
      </g>
      <g opacity="0.650117">
        <path opacity="0.25" d="M1345 456C1350.52 456 1355 451.523 1355 446C1355 440.477 1350.52 436 1345 436C1339.48 436 1335 440.477 1335 446C1335 451.523 1339.48 456 1345 456Z" fill="url(#paint26_linear_621_1216)"></path>
        <path d="M1345 450.4C1347.43 450.4 1349.4 448.43 1349.4 446C1349.4 443.57 1347.43 441.6 1345 441.6C1342.57 441.6 1340.6 443.57 1340.6 446C1340.6 448.43 1342.57 450.4 1345 450.4Z" fill="url(#paint27_radial_621_1216)"></path>
      </g>
      <g opacity="0.650117">
        <path opacity="0.25" d="M1365 543C1370.52 543 1375 538.523 1375 533C1375 527.477 1370.52 523 1365 523C1359.48 523 1355 527.477 1355 533C1355 538.523 1359.48 543 1365 543Z" fill="url(#paint28_linear_621_1216)"></path>
        <path d="M1365 537.4C1367.43 537.4 1369.4 535.43 1369.4 533C1369.4 530.57 1367.43 528.6 1365 528.6C1362.57 528.6 1360.6 530.57 1360.6 533C1360.6 535.43 1362.57 537.4 1365 537.4Z" fill="url(#paint29_radial_621_1216)"></path>
      </g>
      <g opacity="0.65041">
        <path opacity="0.25" d="M1063 533C1068.52 533 1073 528.523 1073 523C1073 517.477 1068.52 513 1063 513C1057.48 513 1053 517.477 1053 523C1053 528.523 1057.48 533 1063 533Z" fill="url(#paint30_linear_621_1216)"></path>
        <path d="M1063 527.4C1065.43 527.4 1067.4 525.43 1067.4 523C1067.4 520.57 1065.43 518.6 1063 518.6C1060.57 518.6 1058.6 520.57 1058.6 523C1058.6 525.43 1060.57 527.4 1063 527.4Z" fill="url(#paint31_radial_621_1216)"></path>
      </g>
      <g opacity="0.65041">
        <path opacity="0.25" d="M1174 491C1179.52 491 1184 486.523 1184 481C1184 475.477 1179.52 471 1174 471C1168.48 471 1164 475.477 1164 481C1164 486.523 1168.48 491 1174 491Z" fill="url(#paint32_linear_621_1216)"></path>
        <path d="M1174 485.4C1176.43 485.4 1178.4 483.43 1178.4 481C1178.4 478.57 1176.43 476.6 1174 476.6C1171.57 476.6 1169.6 478.57 1169.6 481C1169.6 483.43 1171.57 485.4 1174 485.4Z" fill="url(#paint33_radial_621_1216)"></path>
      </g>
      <g opacity="0.65041">
        <path opacity="0.25" d="M871 658C876.523 658 881 653.523 881 648C881 642.477 876.523 638 871 638C865.477 638 861 642.477 861 648C861 653.523 865.477 658 871 658Z" fill="url(#paint34_linear_621_1216)"></path>
        <path d="M871 652.4C873.43 652.4 875.4 650.43 875.4 648C875.4 645.57 873.43 643.6 871 643.6C868.57 643.6 866.6 645.57 866.6 648C866.6 650.43 868.57 652.4 871 652.4Z" fill="url(#paint35_radial_621_1216)"></path>
      </g>
      <g opacity="0.65041">
        <path opacity="0.25" d="M1045 447C1050.52 447 1055 442.523 1055 437C1055 431.477 1050.52 427 1045 427C1039.48 427 1035 431.477 1035 437C1035 442.523 1039.48 447 1045 447Z" fill="url(#paint36_linear_621_1216)"></path>
        <path d="M1045 441.4C1047.43 441.4 1049.4 439.43 1049.4 437C1049.4 434.57 1047.43 432.6 1045 432.6C1042.57 432.6 1040.6 434.57 1040.6 437C1040.6 439.43 1042.57 441.4 1045 441.4Z" fill="url(#paint37_radial_621_1216)"></path>
      </g>
    </g>
  </g>
  <defs>
    <linearGradient id="paint0_linear_621_1216" x1="1067" y1="15318.6" x2="1067" y2="211" gradientUnits="userSpaceOnUse">
      <stop stop-color="white" stop-opacity="0"></stop>
      <stop offset="1" stop-color="white"></stop>
    </linearGradient>
    <linearGradient id="paint1_linear_621_1216" x1="2205" y1="220.905" x2="2205" y2="2691" gradientUnits="userSpaceOnUse">
      <stop stop-color="white"></stop>
      <stop offset="1" stop-color="white" stop-opacity="0"></stop>
    </linearGradient>
    <linearGradient id="paint2_linear_621_1216" x1="2947" y1="231.848" x2="2947" y2="4184" gradientUnits="userSpaceOnUse">
      <stop stop-color="white"></stop>
      <stop offset="1" stop-color="white" stop-opacity="0"></stop>
    </linearGradient>
    <linearGradient id="paint3_linear_621_1216" x1="945" y1="17777.7" x2="945" y2="291" gradientUnits="userSpaceOnUse">
      <stop stop-color="white" stop-opacity="0"></stop>
      <stop offset="1" stop-color="white"></stop>
    </linearGradient>
    <linearGradient id="paint4_linear_621_1216" x1="2083" y1="300.905" x2="2083" y2="2771" gradientUnits="userSpaceOnUse">
      <stop stop-color="white"></stop>
      <stop offset="1" stop-color="white" stop-opacity="0"></stop>
    </linearGradient>
    <linearGradient id="paint5_linear_621_1216" x1="2825" y1="311.848" x2="2825" y2="4264" gradientUnits="userSpaceOnUse">
      <stop stop-color="white"></stop>
      <stop offset="1" stop-color="white" stop-opacity="0"></stop>
    </linearGradient>
    <linearGradient id="paint6_linear_621_1216" x1="1446" y1="11339" x2="1446" y2="157" gradientUnits="userSpaceOnUse">
      <stop stop-color="white" stop-opacity="0"></stop>
      <stop offset="1" stop-color="white"></stop>
    </linearGradient>
    <linearGradient id="paint7_linear_621_1216" x1="2584" y1="166.905" x2="2584" y2="2637" gradientUnits="userSpaceOnUse">
      <stop stop-color="white"></stop>
      <stop offset="1" stop-color="white" stop-opacity="0"></stop>
    </linearGradient>
    <linearGradient id="paint8_linear_621_1216" x1="3327" y1="177.848" x2="3327" y2="4130" gradientUnits="userSpaceOnUse">
      <stop stop-color="white"></stop>
      <stop offset="1" stop-color="white" stop-opacity="0"></stop>
    </linearGradient>
    <linearGradient id="paint9_linear_621_1216" x1="1297" y1="8692.95" x2="1297" y2="247" gradientUnits="userSpaceOnUse">
      <stop stop-color="white" stop-opacity="0"></stop>
      <stop offset="1" stop-color="white"></stop>
    </linearGradient>
    <linearGradient id="paint10_linear_621_1216" x1="2435" y1="256.905" x2="2435" y2="2727" gradientUnits="userSpaceOnUse">
      <stop stop-color="white"></stop>
      <stop offset="1" stop-color="white" stop-opacity="0"></stop>
    </linearGradient>
    <linearGradient id="paint11_linear_621_1216" x1="3177" y1="266.848" x2="3177" y2="4219" gradientUnits="userSpaceOnUse">
      <stop stop-color="white"></stop>
      <stop offset="1" stop-color="white" stop-opacity="0"></stop>
    </linearGradient>
    <linearGradient id="paint12_linear_621_1216" x1="135.5" y1="562.5" x2="1366.5" y2="392" gradientUnits="userSpaceOnUse">
      <stop stop-color="#D9D9D9" stop-opacity="0"></stop>
      <stop offset="0.135417" stop-color="#D9D9D9"></stop>
      <stop offset="0.807292" stop-color="#D9D9D9"></stop>
      <stop offset="1" stop-color="#D9D9D9" stop-opacity="0"></stop>
    </linearGradient>
    <linearGradient id="paint13_linear_621_1216" x1="1440.5" y1="234.5" x2="95" y2="872.5" gradientUnits="userSpaceOnUse">
      <stop offset="0.0662207" stop-color="#1DB0BC"></stop>
      <stop offset="0.251282" stop-color="#EE0F51"></stop>
      <stop offset="0.334793" stop-color="#FFDD00"></stop>
      <stop offset="0.511984" stop-color="#1DB0BC"></stop>
    </linearGradient>
    <linearGradient id="paint14_linear_621_1216" x1="1835" y1="494.924" x2="1835" y2="2471" gradientUnits="userSpaceOnUse">
      <stop stop-color="white"></stop>
      <stop offset="1" stop-color="white" stop-opacity="0"></stop>
    </linearGradient>
    <radialGradient id="paint15_radial_621_1216" cx="0" cy="0" r="1" gradientUnits="userSpaceOnUse" gradientTransform="translate(1280.6 916.6) scale(664.881)">
      <stop stop-color="white" stop-opacity="0.726491"></stop>
      <stop offset="1" stop-color="white" stop-opacity="0.340911"></stop>
    </radialGradient>
    <linearGradient id="paint16_linear_621_1216" x1="1895" y1="430.924" x2="1895" y2="2407" gradientUnits="userSpaceOnUse">
      <stop stop-color="white"></stop>
      <stop offset="1" stop-color="white" stop-opacity="0"></stop>
    </linearGradient>
    <radialGradient id="paint17_radial_621_1216" cx="0" cy="0" r="1" gradientUnits="userSpaceOnUse" gradientTransform="translate(1340.6 852.6) scale(664.881)">
      <stop stop-color="white" stop-opacity="0.726491"></stop>
      <stop offset="1" stop-color="white" stop-opacity="0.340911"></stop>
    </radialGradient>
    <linearGradient id="paint18_linear_621_1216" x1="1923" y1="572.924" x2="1923" y2="2549" gradientUnits="userSpaceOnUse">
      <stop stop-color="white"></stop>
      <stop offset="1" stop-color="white" stop-opacity="0"></stop>
    </linearGradient>
    <radialGradient id="paint19_radial_621_1216" cx="0" cy="0" r="1" gradientUnits="userSpaceOnUse" gradientTransform="translate(1368.6 994.6) scale(664.881)">
      <stop stop-color="white" stop-opacity="0.726491"></stop>
      <stop offset="1" stop-color="white" stop-opacity="0.340911"></stop>
    </radialGradient>
    <linearGradient id="paint20_linear_621_1216" x1="1973" y1="402.924" x2="1973" y2="2379" gradientUnits="userSpaceOnUse">
      <stop stop-color="white"></stop>
      <stop offset="1" stop-color="white" stop-opacity="0"></stop>
    </linearGradient>
    <linearGradient id="paint21_linear_621_1216" x1="1973" y1="402.924" x2="1973" y2="2379" gradientUnits="userSpaceOnUse">
      <stop stop-color="white"></stop>
      <stop offset="1" stop-color="white" stop-opacity="0"></stop>
    </linearGradient>
    <radialGradient id="paint22_radial_621_1216" cx="0" cy="0" r="1" gradientUnits="userSpaceOnUse" gradientTransform="translate(1418.6 824.6) scale(664.881)">
      <stop stop-color="white" stop-opacity="0.726491"></stop>
      <stop offset="1" stop-color="white" stop-opacity="0.340911"></stop>
    </radialGradient>
    <linearGradient id="paint23_linear_621_1216" x1="2349" y1="344.924" x2="2349" y2="2321" gradientUnits="userSpaceOnUse">
      <stop stop-color="white"></stop>
      <stop offset="1" stop-color="white" stop-opacity="0"></stop>
    </linearGradient>
    <linearGradient id="paint24_linear_621_1216" x1="2405" y1="404.924" x2="2405" y2="2381" gradientUnits="userSpaceOnUse">
      <stop stop-color="white"></stop>
      <stop offset="1" stop-color="white" stop-opacity="0"></stop>
    </linearGradient>
    <radialGradient id="paint25_radial_621_1216" cx="0" cy="0" r="1" gradientUnits="userSpaceOnUse" gradientTransform="translate(1850.6 826.6) scale(664.881)">
      <stop stop-color="white" stop-opacity="0.726491"></stop>
      <stop offset="1" stop-color="white" stop-opacity="0.340911"></stop>
    </radialGradient>
    <linearGradient id="paint26_linear_621_1216" x1="2335" y1="459.924" x2="2335" y2="2436" gradientUnits="userSpaceOnUse">
      <stop stop-color="white"></stop>
      <stop offset="1" stop-color="white" stop-opacity="0"></stop>
    </linearGradient>
    <radialGradient id="paint27_radial_621_1216" cx="0" cy="0" r="1" gradientUnits="userSpaceOnUse" gradientTransform="translate(1780.6 881.6) scale(664.881)">
      <stop stop-color="white" stop-opacity="0.726491"></stop>
      <stop offset="1" stop-color="white" stop-opacity="0.340911"></stop>
    </radialGradient>
    <linearGradient id="paint28_linear_621_1216" x1="2355" y1="546.924" x2="2355" y2="2523" gradientUnits="userSpaceOnUse">
      <stop stop-color="white"></stop>
      <stop offset="1" stop-color="white" stop-opacity="0"></stop>
    </linearGradient>
    <radialGradient id="paint29_radial_621_1216" cx="0" cy="0" r="1" gradientUnits="userSpaceOnUse" gradientTransform="translate(1800.6 968.6) scale(664.881)">
      <stop stop-color="white" stop-opacity="0.726491"></stop>
      <stop offset="1" stop-color="white" stop-opacity="0.340911"></stop>
    </radialGradient>
    <linearGradient id="paint30_linear_621_1216" x1="2053" y1="536.924" x2="2053" y2="2513" gradientUnits="userSpaceOnUse">
      <stop stop-color="white"></stop>
      <stop offset="1" stop-color="white" stop-opacity="0"></stop>
    </linearGradient>
    <radialGradient id="paint31_radial_621_1216" cx="0" cy="0" r="1" gradientUnits="userSpaceOnUse" gradientTransform="translate(1498.6 958.6) scale(664.881)">
      <stop stop-color="white" stop-opacity="0.726491"></stop>
      <stop offset="1" stop-color="white" stop-opacity="0.340911"></stop>
    </radialGradient>
    <linearGradient id="paint32_linear_621_1216" x1="2164" y1="494.924" x2="2164" y2="2471" gradientUnits="userSpaceOnUse">
      <stop stop-color="white"></stop>
      <stop offset="1" stop-color="white" stop-opacity="0"></stop>
    </linearGradient>
    <radialGradient id="paint33_radial_621_1216" cx="0" cy="0" r="1" gradientUnits="userSpaceOnUse" gradientTransform="translate(1609.6 916.6) scale(664.881)">
      <stop stop-color="white" stop-opacity="0.726491"></stop>
      <stop offset="1" stop-color="white" stop-opacity="0.340911"></stop>
    </radialGradient>
    <linearGradient id="paint34_linear_621_1216" x1="1861" y1="661.924" x2="1861" y2="2638" gradientUnits="userSpaceOnUse">
      <stop stop-color="white"></stop>
      <stop offset="1" stop-color="white" stop-opacity="0"></stop>
    </linearGradient>
    <radialGradient id="paint35_radial_621_1216" cx="0" cy="0" r="1" gradientUnits="userSpaceOnUse" gradientTransform="translate(1306.6 1083.6) scale(664.881)">
      <stop stop-color="white" stop-opacity="0.726491"></stop>
      <stop offset="1" stop-color="white" stop-opacity="0.340911"></stop>
    </radialGradient>
    <linearGradient id="paint36_linear_621_1216" x1="2035" y1="450.924" x2="2035" y2="2427" gradientUnits="userSpaceOnUse">
      <stop stop-color="white"></stop>
      <stop offset="1" stop-color="white" stop-opacity="0"></stop>
    </linearGradient>
    <radialGradient id="paint37_radial_621_1216" cx="0" cy="0" r="1" gradientUnits="userSpaceOnUse" gradientTransform="translate(1480.6 872.6) scale(664.881)">
      <stop stop-color="white" stop-opacity="0.726491"></stop>
      <stop offset="1" stop-color="white" stop-opacity="0.340911"></stop>
    </radialGradient>
    <clipPath id="clip0_621_1216">
      <rect width="1440" height="915" fill="white"></rect>
    </clipPath>
  </defs>
</svg>
